<svg xmlns="http://www.w3.org/2000/svg" id="opg-chart" style="touch-action: none; -webkit-user-select: none; -webkit-user-drag: none; -webkit-tap-highlight-color: rgba(0, 0, 0, 0);">

        <g transform="rotate(0),scale(0.8099999999999995),translate(94.39506172839515,47.08641975308643)"><path stroke="black" d="M 100 400 L 205 400 M 310 200 L 205 200 M 310 200 L 205 200 M 310 600 L 205 600 M 205 200 L 205 600 M 310 200 L 415 200 M 520 100 L 415 100 M 520 100 L 415 100 M 520 300 L 415 300 M 415 100 L 415 300 M 310 600 L 415 600 M 520 500 L 415 500 M 520 500 L 415 500 M 520 700 L 415 700 M 415 500 L 415 700 M 520 100 L 625 100 M 730 50 L 625 50 M 730 50 L 625 50 M 730 150 L 625 150 M 625 50 L 625 150 M 520 300 L 625 300 M 730 250 L 625 250 M 730 250 L 625 250 M 730 350 L 625 350 M 625 250 L 625 350 M 520 500 L 625 500 M 730 450 L 625 450 M 730 450 L 625 450 M 730 550 L 625 550 M 625 450 L 625 550 M 520 700 L 625 700 M 730 650 L 625 650 M 730 650 L 625 650 M 730 750 L 625 750 M 625 650 L 625 750 M 730 50 L 835 50 M 940 25 L 835 25 M 940 25 L 835 25 M 940 75 L 835 75 M 835 25 L 835 75 M 730 150 L 835 150 M 940 125 L 835 125 M 940 125 L 835 125 M 940 175 L 835 175 M 835 125 L 835 175 M 730 250 L 835 250 M 940 225 L 835 225 M 940 225 L 835 225 M 940 275 L 835 275 M 835 225 L 835 275 M 730 350 L 835 350 M 940 325 L 835 325 M 940 325 L 835 325 M 940 375 L 835 375 M 835 325 L 835 375 M 730 450 L 835 450 M 940 425 L 835 425 M 940 425 L 835 425 M 940 475 L 835 475 M 835 425 L 835 475 M 730 550 L 835 550 M 940 525 L 835 525 M 940 525 L 835 525 M 940 575 L 835 575 M 835 525 L 835 575 M 730 650 L 835 650 M 940 625 L 835 625 M 940 625 L 835 625 M 940 675 L 835 675 M 835 625 L 835 675 M 730 750 L 835 750 M 940 725 L 835 725 M 940 725 L 835 725 M 940 775 L 835 775 M 835 725 L 835 775 "/><g transform="translate(0, 375)"><rect width="200" height="50" rx="5" ry="5" stroke-width="2" stroke="black" fill="#8DEEEE"/><text x="5" y="15">Curtis Michael Wigington</text><text x="5" y="35">1992-Living</text></g><g transform="translate(210, 175)"><rect width="200" height="50" rx="5" ry="5" stroke-width="2" stroke="black" fill="#8DEEEE"/><text x="5" y="15">Michael Lynn Wigington</text><text x="5" y="35">Living</text></g><g transform="translate(420, 75)"><rect width="200" height="50" rx="5" ry="5" stroke-width="2" stroke="black" fill="#8DEEEE"/><text x="5" y="15">Dean Richard Wigington</text><text x="5" y="35">1936-2009</text></g><g transform="translate(420, 275)"><rect width="200" height="50" rx="5" ry="5" stroke-width="2" stroke="black" fill="#FFD1DC"/><text x="5" y="15">Claudia Ruth Lewis</text><text x="5" y="35">Living</text></g><g transform="translate(630, 25)"><rect width="200" height="50" rx="5" ry="5" stroke-width="2" stroke="black" fill="#8DEEEE"/><text x="5" y="15">Lester Howard Wigington</text><text x="5" y="35">1908-1978</text></g><g transform="translate(630, 125)"><rect width="200" height="50" rx="5" ry="5" stroke-width="2" stroke="black" fill="#FFD1DC"/><text x="5" y="15">Norma Marguerite Wilcox</text><text x="5" y="35">1912-1968</text></g><g transform="translate(630, 225)"><rect width="200" height="50" rx="5" ry="5" stroke-width="2" stroke="black" fill="#8DEEEE"/><text x="5" y="15">Calvert Thomas Lewis</text><text x="5" y="35">1912-2006</text></g><g transform="translate(630, 325)"><rect width="200" height="50" rx="5" ry="5" stroke-width="2" stroke="black" fill="#FFD1DC"/><text x="5" y="15">Agnes Ruth King</text><text x="5" y="35">1914-1969</text></g><g transform="translate(840, 0)"><rect width="200" height="50" rx="5" ry="5" stroke-width="2" stroke="black" fill="#8DEEEE"/><text x="5" y="15">Omar J Wigington</text><text x="5" y="35">1884-1964</text></g><g transform="translate(840, 50)"><rect width="200" height="50" rx="5" ry="5" stroke-width="2" stroke="black" fill="#FFD1DC"/><text x="5" y="15">Mattie Lou Sink</text><text x="5" y="35">1884-1950</text></g><g transform="translate(840, 100)"><rect width="200" height="50" rx="5" ry="5" stroke-width="2" stroke="black" fill="#8DEEEE"/><text x="5" y="15">Arthur Henry Wilcox Jr.</text><text x="5" y="35">1888-1950</text></g><g transform="translate(840, 150)"><rect width="200" height="50" rx="5" ry="5" stroke-width="2" stroke="black" fill="#FFD1DC"/><text x="5" y="15">Adelia Johanna Mortensen</text><text x="5" y="35">1890-1980</text></g><g transform="translate(840, 200)"><rect width="200" height="50" rx="5" ry="5" stroke-width="2" stroke="black" fill="#8DEEEE"/><text x="5" y="15">Thomas George Lewis</text><text x="5" y="35">1886-1970</text></g><g transform="translate(840, 250)"><rect width="200" height="50" rx="5" ry="5" stroke-width="2" stroke="black" fill="#FFD1DC"/><text x="5" y="15">Calla Irene Booth</text><text x="5" y="35">1892-1952</text></g><g transform="translate(840, 300)"><rect width="200" height="50" rx="5" ry="5" stroke-width="2" stroke="black" fill="#8DEEEE"/><text x="5" y="15">George Henry King</text><text x="5" y="35">1872-1945</text></g><g transform="translate(840, 350)"><rect width="200" height="50" rx="5" ry="5" stroke-width="2" stroke="black" fill="#FFD1DC"/><text x="5" y="15">Catherine Hayes</text><text x="5" y="35">1877-1940</text></g><g transform="translate(630, 425)"><rect width="200" height="50" rx="5" ry="5" stroke-width="2" stroke="black" fill="#8DEEEE"/><text x="5" y="15">Albin Emil Boehm</text><text x="5" y="35">1897-1977</text></g><g transform="translate(840, 400)"><rect width="200" height="50" rx="5" ry="5" stroke-width="2" stroke="black" fill="#8DEEEE"/><text x="5" y="15">Emil Max Böhm</text><text x="5" y="35">1874-1965</text></g><g transform="translate(840, 450)"><rect width="200" height="50" rx="5" ry="5" stroke-width="2" stroke="black" fill="#FFD1DC"/><text x="5" y="15">Minna Rosalie Fritzsche</text><text x="5" y="35">1875-1920</text></g><g transform="translate(420, 475)"><rect width="200" height="50" rx="5" ry="5" stroke-width="2" stroke="black" fill="#8DEEEE"/><text x="5" y="15">Rolf Johannes Boehm</text><text x="5" y="35">1924-1989</text></g><g transform="translate(630, 525)"><rect width="200" height="50" rx="5" ry="5" stroke-width="2" stroke="black" fill="#FFD1DC"/><text x="5" y="15">Gertrude Frieda Neumarker</text><text x="5" y="35">1896-1980</text></g><g transform="translate(840, 500)"><rect width="200" height="50" rx="5" ry="5" stroke-width="2" stroke="black" fill="#8DEEEE"/><text x="5" y="15">Albin Otto Neumarker</text><text x="5" y="35">1870-1959</text></g><g transform="translate(840, 550)"><rect width="200" height="50" rx="5" ry="5" stroke-width="2" stroke="black" fill="#FFD1DC"/><text x="5" y="15">Frieda Selma Hartel</text><text x="5" y="35">1873-1947</text></g><g transform="translate(210, 575)"><rect width="200" height="50" rx="5" ry="5" stroke-width="2" stroke="black" fill="#FFD1DC"/><text x="5" y="15">Sheryl Joy Boehm</text><text x="5" y="35">Living</text></g><g transform="translate(420, 675)"><rect width="200" height="50" rx="5" ry="5" stroke-width="2" stroke="black" fill="#FFD1DC"/><text x="5" y="15">Joan Mary Becker</text><text x="5" y="35">1935-2011</text></g><g transform="translate(630, 625)"><rect width="200" height="50" rx="5" ry="5" stroke-width="2" stroke="black" fill="#8DEEEE"/><text x="5" y="15">Lyman Edgar Becker</text><text x="5" y="35">1904-1995</text></g><g transform="translate(630, 725)"><rect width="200" height="50" rx="5" ry="5" stroke-width="2" stroke="black" fill="#FFD1DC"/><text x="5" y="15">Hilda Marie Elnora Kasten</text><text x="5" y="35">1909-1987</text></g><g transform="translate(840, 600)"><rect width="200" height="50" rx="5" ry="5" stroke-width="2" stroke="black" fill="#8DEEEE"/><text x="5" y="15">August William Becker</text><text x="5" y="35">1878-1959</text></g><g transform="translate(840, 650)"><rect width="200" height="50" rx="5" ry="5" stroke-width="2" stroke="black" fill="#FFD1DC"/><text x="5" y="15">Anna Kathrine Nero</text><text x="5" y="35">1881-1961</text></g><g transform="translate(840, 700)"><rect width="200" height="50" rx="5" ry="5" stroke-width="2" stroke="black" fill="#8DEEEE"/><text x="5" y="15">Karl Ernest Wilhelm Kasten</text><text x="5" y="35">1870-1912</text></g><g transform="translate(840, 750)"><rect width="200" height="50" rx="5" ry="5" stroke-width="2" stroke="black" fill="#FFD1DC"/><text x="5" y="15">Margaretta Maria Bettendorf</text><text x="5" y="35">1871-1926</text></g></g></svg>
